<svg width="172" height="753" viewBox="0 0 172 753" fill="none" xmlns="http://www.w3.org/2000/svg">
<g clip-path="url(#clip0_1_3)">
<path d="M13.153 193.671C13.153 193.671 -1.64 182.255 6.424 174.861C14.494 167.457 17.854 168.132 17.854 168.132C17.854 168.132 -1.64 114.378 21.209 84.139C44.058 53.895 91.772 47.845 117.985 58.6C144.198 69.346 161.668 113.029 161.668 123.784C161.668 134.543 150.914 167.458 150.914 167.458C150.914 167.458 173.727 175.06 172.398 177.981C171.073 180.902 166.373 186.956 164.358 188.971C162.334 190.981 156.968 194.346 156.968 194.346L152.254 203.752L151.587 525.65C151.587 525.65 175.079 531.103 172.398 535.767C169.723 540.444 165.023 548.499 162.334 549.848C159.645 551.188 152.255 551.864 152.255 551.864C152.255 551.864 135.164 570.341 103.053 579.246C103.053 579.246 85.509 595.99 82.376 593.759C79.233 591.523 74.755 578.975 74.755 578.975C74.755 578.975 43.392 568.659 37.56 565.529C31.742 562.402 19.208 552.54 19.208 552.54C19.208 552.54 4.41001 543.135 4.41001 540.445C4.41001 537.76 3.971 531.04 9.346 529.691C14.712 528.354 18.299 525.665 18.299 525.665L17.402 428.445V198.376L13.153 193.671Z" fill="white"/>
<path d="M172.398 185.385C172.398 182.903 172.398 180.449 172.398 177.981C170.338 170.481 163.165 168.086 155.752 165.983C182.085 112.119 144.873 52.902 90.111 49.477C86.419 49.477 82.707 49.477 79.014 49.477C26.915 53.013 -12.618 110.256 15.213 165.983C9.062 168.747 2.25001 170.873 0.419006 177.981C0.419006 180.449 0.419006 182.903 0.419006 185.385C2.79001 191.943 9.187 194.471 15.213 197.383C15.213 306.18 15.213 414.986 15.213 523.783C7.897 525.391 2.86401 529.309 0.419006 535.767C0.419006 537.939 0.419006 540.102 0.419006 542.265C3.31701 548.327 6.92599 553.633 16.124 553.337C28.011 567.983 46.169 576.334 69.78 579.245C71.005 588.156 75.377 593.989 83.64 595.892C85.494 595.892 87.324 595.892 89.176 595.892C97.468 594.002 100.056 586.426 103.051 579.245C126.039 576.038 143.116 566.915 155.751 553.337C165.585 553.938 169.417 548.559 172.397 542.265C172.397 540.102 172.397 537.939 172.397 535.767C170.411 528.229 163.082 525.983 156.657 522.84C156.657 414.043 156.657 305.283 156.657 196.486C164.691 195.561 169.502 191.425 172.398 185.385ZM76.238 55.948C137.446 49.612 179.017 114.748 147.415 167.827C105.831 167.827 64.208 167.827 22.619 167.827C-5.989 118.27 26.709 61.045 76.238 55.948ZM76.238 579.245C80.522 577.661 91.817 578.224 94.715 578.311C99.234 590.943 75.037 593.683 76.238 579.245ZM136.342 561.684C106.773 579.292 45.519 578.224 23.543 553.337C62.365 551.188 105.215 553.027 145.577 552.441C147.476 555.302 140.418 559.244 136.342 561.684ZM165.919 537.656C167.537 550.084 146.361 546.89 131.711 546.89C102.082 546.89 77.504 546.89 46.647 546.89C34.668 546.89 11.264 549.26 7.812 543.183C4.915 538.085 7.923 533.925 11.523 532.082C11.99 531.822 11.436 531.235 12.429 531.161C46.195 528.656 92.729 531.161 132.646 531.161C146.384 531.162 164.803 529 165.919 537.656ZM130.791 189.988C100.302 189.988 75.23 189.988 43.859 189.988C31.201 189.988 9.138 192.234 6.905 184.45C5.098 178.211 9.114 175.735 12.427 174.297C12.858 174.098 12.39 173.437 13.375 173.349C47.385 170.844 94.359 173.349 134.483 173.349C149.156 173.349 166.173 171.251 165.919 181.663C165.662 192.493 145.807 189.988 130.791 189.988Z" fill="black"/>
<path d="M61.454 135.448C48 108.292 65.544 76.639 79.016 65.168C44.008 72.243 15.682 116.209 31.853 155.793C36.312 143.592 47.483 138.125 61.454 135.448Z" fill="#D9DADB"/>
<path d="M148.586 196.823H20.277V520.949H148.586V196.823Z" fill="white"/>
<g clip-path="url(#clip1_1_3)">
<mask id="mask0_1_3" style="mask-type:alpha" maskUnits="userSpaceOnUse" x="19" y="197" width="131" height="324">
<rect x="19" y="197" width="131" height="324" fill="#D9D9D9"/>
</mask>
<g mask="url(#mask0_1_3)">
<path id="bpole-1" d="M20.277 447.548L148.586 393V465.097L20.277 520.579V447.548Z" fill="#BE0A26"/>
<path  id="bpole-3" d="M20.277 447.548L148.586 393V465.097L20.277 520.58V447.548Z" fill="#BE0A26"/>
<path id="bpole-2" d="M20.277 447.548L148.586 393V465.097L20.277 520.58V447.548Z" fill="#172983"/>
<path id="bpole-4" d="M20.277 447.548L148.586 393V465.096L20.277 520.579V447.548Z" fill="#172983"/>
<path id="bpole-5" d="M20.277 446.548L148.586 392V464.096L20.277 519.579V446.548Z" fill="#BE0A26"/>
<path id="bpole-6" d="M20.277 446.516L148.586 392V464.087L20.277 520.124V446.516Z" fill="#172983"/>
</g>
</g>
</g>
<defs>
<clipPath id="clip0_1_3">
<rect width="172" height="753" fill="white"/>
</clipPath>
<clipPath id="clip1_1_3">
<rect width="129" height="753" fill="white" transform="translate(20)"/>
</clipPath>

<style>
    #bpole-1 {
        transform: translateY(231px);
        animation: bpole-1-anim 6s linear infinite;
    }

    #bpole-2 {
        transform: translateY(232px);
        animation: bpole-1-anim 6s linear -1s infinite;
    }

    #bpole-3 {
        transform: translateY(233px);
        animation: bpole-3-anim 6s linear -2s infinite;
    }

    #bpole-4 {
        transform: translateY(233px);
        animation: bpole-4-anim 6s linear -3s infinite;
    }

    #bpole-5 {
        transform: translateY(233px);
        animation: bpole-5-anim 6s linear -4s infinite;
    }

    #bpole-6 {
        transform: translateY(233px);
        animation: bpole-6-anim 6s linear -5s infinite;
    }

    @keyframes bpole-1-anim {
        from {transform: translateY(232px);}
        to {transform: translateY(-393px)}
    }

    @keyframes bpole-2-anim {
        from {transform: translateY(232px);}
        to {transform: translateY(-393px)}
    }

    @keyframes bpole-3-anim {
        from {transform: translateY(233px);}
        to {transform: translateY(-393px);}
    }

    @keyframes bpole-4-anim {
        from {transform: translateY(233px);}
        to {transform: translateY(-393px);}
    }

    @keyframes bpole-5-anim {
        from {transform: translateY(233px);}
        to {transform: translateY(-393px);}
    }

    @keyframes bpole-6-anim {
        from {transform: translateY(233px);}
        to {transform: translateY(-393px);}
    }
</style>

</defs>
</svg>
